<mxfile>
    <diagram id="8_MFSvdGacUxw7jQJ95F" name="Page-1">
        <mxGraphModel dx="734" dy="614" grid="1" gridSize="10" guides="1" tooltips="1" connect="1" arrows="1" fold="1" page="1" pageScale="1" pageWidth="850" pageHeight="1100" background="#283618" math="0" shadow="0">
            <root>
                <mxCell id="0"/>
                <mxCell id="1" parent="0"/>
                <mxCell id="9" style="edgeStyle=orthogonalEdgeStyle;curved=0;rounded=1;sketch=0;orthogonalLoop=1;jettySize=auto;html=1;exitX=0;exitY=0.5;exitDx=0;exitDy=0;entryX=0.5;entryY=0;entryDx=0;entryDy=0;strokeColor=#DDA15E;fillColor=#BC6C25;fontColor=#FEFAE0;labelBackgroundColor=#283618;" edge="1" parent="1" source="2" target="7">
                    <mxGeometry relative="1" as="geometry"/>
                </mxCell>
                <mxCell id="10" style="edgeStyle=orthogonalEdgeStyle;curved=0;rounded=1;sketch=0;orthogonalLoop=1;jettySize=auto;html=1;exitX=0;exitY=1;exitDx=0;exitDy=0;entryX=0.5;entryY=0;entryDx=0;entryDy=0;strokeColor=#DDA15E;fillColor=#BC6C25;fontColor=#FEFAE0;labelBackgroundColor=#283618;" edge="1" parent="1" source="2" target="6">
                    <mxGeometry relative="1" as="geometry"/>
                </mxCell>
                <mxCell id="11" style="edgeStyle=orthogonalEdgeStyle;curved=0;rounded=1;sketch=0;orthogonalLoop=1;jettySize=auto;html=1;exitX=0.5;exitY=1;exitDx=0;exitDy=0;entryX=0.5;entryY=0;entryDx=0;entryDy=0;strokeColor=#DDA15E;fillColor=#BC6C25;fontColor=#FEFAE0;labelBackgroundColor=#283618;" edge="1" parent="1" source="2" target="5">
                    <mxGeometry relative="1" as="geometry"/>
                </mxCell>
                <mxCell id="12" style="edgeStyle=orthogonalEdgeStyle;curved=0;rounded=1;sketch=0;orthogonalLoop=1;jettySize=auto;html=1;exitX=1;exitY=1;exitDx=0;exitDy=0;entryX=0.5;entryY=0;entryDx=0;entryDy=0;strokeColor=#DDA15E;fillColor=#BC6C25;fontColor=#FEFAE0;labelBackgroundColor=#283618;" edge="1" parent="1" source="2" target="4">
                    <mxGeometry relative="1" as="geometry"/>
                </mxCell>
                <mxCell id="13" style="edgeStyle=orthogonalEdgeStyle;curved=0;rounded=1;sketch=0;orthogonalLoop=1;jettySize=auto;html=1;exitX=1;exitY=0.5;exitDx=0;exitDy=0;entryX=0.5;entryY=0;entryDx=0;entryDy=0;strokeColor=#DDA15E;fillColor=#BC6C25;fontColor=#FEFAE0;labelBackgroundColor=#283618;" edge="1" parent="1" source="2" target="3">
                    <mxGeometry relative="1" as="geometry"/>
                </mxCell>
                <mxCell id="2" value="Monazite" style="ellipse;whiteSpace=wrap;html=1;rounded=0;sketch=0;strokeColor=#DDA15E;fillColor=#BC6C25;fontColor=#FEFAE0;" vertex="1" parent="1">
                    <mxGeometry x="250" y="30" width="120" height="80" as="geometry"/>
                </mxCell>
                <mxCell id="3" value="Neodymium" style="triangle;whiteSpace=wrap;html=1;rounded=0;sketch=0;strokeColor=#DDA15E;fillColor=#BC6C25;fontColor=#FEFAE0;" vertex="1" parent="1">
                    <mxGeometry x="440" y="160" width="60" height="80" as="geometry"/>
                </mxCell>
                <mxCell id="4" value="Chromium" style="triangle;whiteSpace=wrap;html=1;rounded=0;sketch=0;strokeColor=#DDA15E;fillColor=#BC6C25;fontColor=#FEFAE0;" vertex="1" parent="1">
                    <mxGeometry x="360" y="160" width="60" height="80" as="geometry"/>
                </mxCell>
                <mxCell id="5" value="Samarium" style="triangle;whiteSpace=wrap;html=1;rounded=0;sketch=0;strokeColor=#DDA15E;fillColor=#BC6C25;fontColor=#FEFAE0;" vertex="1" parent="1">
                    <mxGeometry x="280" y="160" width="60" height="80" as="geometry"/>
                </mxCell>
                <mxCell id="6" value="Thorium" style="triangle;whiteSpace=wrap;html=1;rounded=0;sketch=0;strokeColor=#DDA15E;fillColor=#BC6C25;fontColor=#FEFAE0;" vertex="1" parent="1">
                    <mxGeometry x="200" y="160" width="60" height="80" as="geometry"/>
                </mxCell>
                <mxCell id="7" value="Uranium" style="triangle;whiteSpace=wrap;html=1;rounded=0;sketch=0;strokeColor=#DDA15E;fillColor=#BC6C25;fontColor=#FEFAE0;" vertex="1" parent="1">
                    <mxGeometry x="120" y="160" width="60" height="80" as="geometry"/>
                </mxCell>
            </root>
        </mxGraphModel>
    </diagram>
</mxfile>